<?xml version="1.0" standalone="no"?>
<!DOCTYPE svg PUBLIC "-//W3C//DTD SVG 20010904//EN"
 "http://www.w3.org/TR/2001/REC-SVG-20010904/DTD/svg10.dtd">
<svg version="1.0" xmlns="http://www.w3.org/2000/svg"
 width="714.000000pt" height="255.000000pt" viewBox="0 0 714.000000 255.000000"
 preserveAspectRatio="xMidYMid meet">

<g transform="translate(0.000000,255.000000) scale(0.100000,-0.100000)"
fill="#000000" stroke="none">
<path d="M0 1275 l0 -1275 1902 2 1903 3 9 43 c7 31 6 46 -2 51 -9 5 -10 21
-2 62 12 62 10 519 -2 519 -4 0 -8 5 -8 11 0 5 4 8 8 5 5 -3 9 51 11 120 1 89
-2 124 -10 124 -8 0 -8 4 -2 13 6 7 9 134 8 322 -2 345 -3 354 -80 522 -31 70
-32 75 -10 48 50 -59 58 -65 79 -59 40 13 96 12 107 -3 10 -11 35 -12 128 -7
126 7 167 6 193 -2 13 -4 16 -1 12 9 -3 8 -1 18 5 22 7 4 8 -1 4 -12 -5 -15
-3 -16 8 -6 7 7 17 13 23 13 5 0 -1 -8 -12 -19 -12 -10 -31 -38 -42 -62 -17
-39 -20 -66 -20 -236 l0 -192 -76 34 c-42 19 -89 35 -105 35 -17 0 -29 6 -31
15 -2 10 -15 -3 -35 -34 -26 -39 -33 -60 -33 -100 0 -49 1 -50 33 -54 l32 -3
-32 -8 c-18 -5 -33 -13 -33 -18 0 -9 34 -5 83 8 9 3 17 1 17 -4 0 -6 -22 -15
-50 -22 -28 -7 -50 -16 -50 -20 0 -5 15 -4 32 1 40 11 38 11 38 -1 0 -5 -16
-12 -35 -16 -19 -3 -35 -11 -35 -16 0 -6 14 -8 35 -4 21 4 35 3 35 -3 0 -6
-16 -13 -35 -17 -30 -5 -35 -10 -35 -35 0 -26 3 -29 25 -24 14 3 36 7 50 10
14 3 25 1 25 -4 0 -6 -17 -13 -37 -16 -59 -10 -63 -13 -63 -41 0 -25 2 -26 38
-19 54 11 241 14 248 4 3 -5 10 -7 15 -4 5 4 9 -1 9 -9 0 -8 -4 -18 -10 -21
-5 -3 -10 1 -10 9 0 25 -111 25 -257 1 -27 -5 -33 -11 -33 -30 0 -29 22 -32
110 -15 49 9 71 7 58 -5 -2 -3 -41 -10 -86 -17 l-82 -11 0 -42 c0 -23 2 -44 5
-47 3 -3 25 -2 49 3 73 13 156 19 156 10 0 -9 -38 -17 -142 -27 -46 -5 -68
-11 -68 -20 0 -9 10 -11 37 -7 26 4 34 3 29 -5 -4 -7 -21 -12 -37 -12 -18 0
-28 -4 -24 -10 4 -7 27 -8 57 -5 33 4 47 2 43 -5 -3 -5 -18 -10 -33 -10 -38 0
-72 -11 -72 -22 0 -5 15 -6 35 -2 23 4 35 2 35 -5 0 -10 -27 -16 -57 -12 -19
3 -16 -16 5 -28 16 -10 16 -10 0 -11 -11 0 -17 -7 -16 -18 1 -9 0 -53 0 -97
l-2 -80 -38 -17 -37 -16 34 -1 c26 -1 32 -4 27 -17 -3 -8 -2 -12 4 -9 6 3 10
-1 10 -10 0 -9 -4 -14 -9 -10 -5 3 -12 1 -15 -4 -4 -5 2 -11 11 -13 16 -3 18
-17 20 -113 3 -194 -1 -177 30 -173 19 2 29 10 34 28 4 14 8 18 8 10 1 -13 3
-13 10 -1 5 8 19 16 30 18 17 2 21 -2 21 -27 0 -17 5 -30 10 -30 6 0 10 13 10
28 0 25 4 28 35 29 21 1 35 -4 34 -10 -5 -46 -5 -46 121 -45 88 1 121 5 124
15 3 7 13 13 22 13 10 0 14 -5 10 -15 -4 -12 6 -15 62 -14 37 1 59 3 50 6 -10
2 -18 9 -18 14 0 9 37 12 153 10 39 -1 66 3 63 8 -3 5 3 11 14 14 14 4 20 0
20 -11 0 -14 2 -14 9 -3 7 11 10 9 13 -10 2 -15 11 -25 23 -27 19 -3 19 -2 1
9 -15 9 -16 13 -5 20 22 14 29 11 29 -11 0 -11 7 -20 15 -20 8 0 15 5 15 12 0
9 3 9 12 0 21 -21 38 -14 38 16 0 15 5 33 12 40 9 9 8 12 -5 12 -19 0 -23 15
-7 25 12 7 4 25 -11 25 -5 0 -9 -11 -9 -25 0 -34 -35 -34 -62 1 l-20 25 -12
-23 c-12 -23 -13 -23 -185 -22 -114 1 -176 5 -184 13 -8 8 -7 11 6 11 13 0 17
9 17 34 0 19 -6 37 -12 39 -19 8 227 6 292 -1 51 -7 55 -9 52 -32 -2 -22 -1
-23 11 -8 8 10 18 13 26 8 8 -4 26 -4 42 0 15 5 30 5 34 2 4 -4 11 1 16 11 6
9 17 17 24 17 8 0 15 5 15 11 0 5 -5 7 -11 4 -5 -4 -46 -4 -90 0 l-79 7 0 37
0 38 62 2 c41 1 64 -2 69 -11 8 -13 14 38 9 90 -1 15 6 25 22 31 13 5 26 7 30
4 4 -2 5 3 2 11 -3 9 -11 13 -17 9 -6 -3 -7 -1 -3 6 6 9 11 9 21 1 10 -8 16
-7 24 7 8 14 10 15 11 3 0 -13 1 -13 10 0 8 12 10 9 10 -12 0 -16 -4 -28 -10
-28 -5 0 -10 -5 -10 -10 0 -9 20 -1 50 18 2 2 -2 7 -10 12 -8 5 -11 12 -6 17
4 4 12 0 17 -10 6 -9 17 -17 24 -17 8 0 15 -4 15 -10 0 -5 7 -7 15 -4 9 4 15
0 15 -10 0 -10 -9 -16 -24 -16 -14 0 -27 -4 -30 -9 -7 -11 37 -23 56 -16 18 7
48 -15 30 -22 -6 -2 -10 -8 -7 -13 3 -4 -2 -13 -10 -20 -13 -11 -14 -8 -11 16
2 16 1 23 -1 17 -2 -7 -13 -13 -23 -13 -13 0 -17 -5 -14 -14 7 -18 37 -26 56
-15 11 6 17 3 21 -10 4 -16 15 -18 88 -17 l84 1 3 206 2 206 88 15 c48 9 88
15 89 14 6 -5 3 -569 -2 -574 -3 -4 -10 0 -15 8 -8 12 -10 12 -10 -4 0 -15 -3
-16 -14 -7 -10 8 -15 9 -18 1 -2 -6 -11 -8 -21 -4 -29 11 -13 29 29 32 44 4
73 22 34 22 -14 0 -42 -3 -62 -6 l-37 -6 -3 -74 c-3 -63 -1 -73 12 -67 32 14
102 15 111 2 5 -8 9 -10 9 -4 0 6 13 10 30 11 16 1 27 -3 24 -7 -2 -4 281 -8
629 -9 l634 0 2 47 c2 64 11 68 11 5 l0 -52 85 1 c83 1 102 8 68 28 -17 9 -17
10 0 16 9 4 17 13 17 21 0 8 -8 14 -17 14 -17 1 -17 1 -1 14 22 16 23 26 3 26
-23 0 -18 26 10 44 14 9 25 14 25 10 0 -4 6 -1 14 6 12 9 16 5 22 -27 4 -21 7
-53 7 -70 -1 -22 4 -33 13 -33 11 0 13 35 14 185 0 119 -4 184 -10 180 -6 -3
-10 -32 -10 -65 0 -66 -4 -70 -81 -70 l-49 0 1 303 c3 582 13 927 28 936 11 7
11 9 0 13 -8 3 -10 9 -6 14 5 5 14 2 20 -7 13 -17 87 -24 87 -8 0 6 4 7 10 4
7 -4 10 167 10 504 l0 511 -3570 0 -3570 0 0 -1275z m2671 1228 c26 -15 29
-23 29 -65 l0 -48 -34 17 c-37 17 -48 40 -39 84 7 34 6 34 44 12z m-397 1 c12
-5 16 -20 16 -60 0 -30 -3 -54 -7 -53 -5 0 -28 10 -53 22 -48 23 -63 55 -40
83 13 14 56 19 84 8z m744 -78 c3 -50 -2 -55 -30 -29 -12 11 -18 30 -18 61 0
44 0 44 23 30 16 -12 23 -27 25 -62z m-508 -113 c0 -29 -2 -53 -4 -53 -3 0
-21 9 -40 21 -34 20 -36 24 -36 76 l0 54 40 -22 c39 -22 40 -24 40 -76z m624
45 c9 -12 16 -38 16 -56 0 -29 -2 -33 -15 -22 -8 7 -12 16 -9 21 3 5 -2 9 -10
9 -12 0 -16 10 -16 35 0 40 12 45 34 13z m-436 -164 l3 -57 -33 21 c-30 19
-33 26 -36 78 l-3 57 33 -21 c30 -19 33 -26 36 -78z m147 -40 c21 -14 25 -24
25 -65 0 -53 -10 -61 -42 -32 -13 11 -18 30 -18 65 0 26 2 48 5 48 3 0 17 -7
30 -16z m168 -166 c5 -42 4 -43 -24 -28 -14 8 -18 18 -15 43 3 18 5 36 5 42 2
23 30 -24 34 -57z m-342 35 c26 -15 29 -23 29 -65 0 -26 -2 -48 -5 -48 -4 0
-19 7 -34 15 -29 15 -44 57 -33 97 5 22 7 22 43 1z m479 -150 c0 -25 -19 -30
-38 -11 -13 13 -16 50 -5 61 11 12 43 -25 43 -50z m-303 35 c6 -7 13 -29 16
-49 5 -33 3 -36 -14 -32 -26 7 -38 32 -32 66 6 29 15 34 30 15z m401 -40 c13
-13 17 -98 4 -98 -19 0 -32 27 -32 67 0 44 7 52 28 31z m1195 -25 c-7 -2 -21
-2 -30 0 -10 3 -4 5 12 5 17 0 24 -2 18 -5z m-66 -9 c-3 -3 -12 -4 -19 -1 -8
3 -5 6 6 6 11 1 17 -2 13 -5z m194 -13 c74 -25 176 -77 182 -93 3 -7 6 -4 7 7
1 19 1 19 11 2 7 -12 17 -16 30 -12 10 4 24 3 31 -1 6 -4 30 -9 52 -10 130 -8
192 -17 203 -31 7 -9 13 -11 18 -4 3 6 26 11 51 11 31 0 43 -3 38 -11 -5 -8 1
-10 20 -7 14 3 26 2 26 -1 0 -4 18 -6 40 -6 22 0 40 -2 40 -6 0 -7 89 -13 153
-11 22 1 48 -3 58 -9 31 -16 172 -29 186 -17 13 10 107 -6 128 -22 14 -11 244
-17 248 -6 1 4 21 3 42 -3 22 -6 58 -11 80 -11 30 0 36 -3 25 -10 -13 -8 -12
-10 3 -10 9 0 17 5 17 10 0 6 10 10 23 10 18 0 19 -2 7 -10 -13 -8 -13 -10 1
-10 9 0 19 7 23 15 3 8 13 14 23 14 17 -1 17 -2 1 -6 -38 -10 -15 -20 35 -16
34 3 47 1 39 -5 -10 -6 -4 -9 20 -8 18 1 36 6 40 11 5 7 8 7 8 0 0 -5 19 -10
43 -10 23 0 48 -3 55 -8 8 -7 12 -4 12 7 0 12 5 14 24 6 17 -6 26 -5 28 2 3 8
11 7 27 -4 17 -12 30 -14 54 -7 17 5 33 6 36 4 2 -3 -1 -5 -7 -5 -7 0 -12 -7
-12 -15 0 -8 -6 -12 -14 -9 -8 3 -17 1 -21 -5 -3 -6 -15 -11 -26 -11 -14 0
-19 7 -19 26 0 14 -4 23 -10 19 -5 -3 -10 -15 -10 -26 0 -10 -4 -19 -10 -19
-5 0 -10 9 -10 20 0 11 -4 20 -10 20 -5 0 -10 -9 -10 -20 0 -37 -68 -38 -220
-6 -45 10 -95 14 -124 11 -138 -16 -420 -91 -412 -110 3 -8 -20 -16 -62 -24
-90 -17 -284 -66 -408 -102 -56 -16 -104 -29 -105 -29 -2 0 -3 56 -1 125 l4
125 -40 0 c-44 0 -99 -16 -123 -36 -9 -8 -18 -12 -21 -9 -3 3 -46 -15 -95 -40
-50 -25 -92 -45 -94 -45 -2 0 -3 44 -1 99 l3 98 -53 47 c-29 25 -59 44 -65 41
-47 -19 -46 -19 -41 9 4 19 0 33 -14 46 -29 26 -136 77 -199 94 -30 8 -45 15
-33 15 11 1 45 -7 75 -18z m-243 -2 c-10 -5 -19 -20 -19 -32 -1 -18 -2 -18 -6
-4 -5 20 13 47 31 47 6 0 3 -5 -6 -11z m-1655 -38 c24 -13 27 -19 27 -67 0
-55 -10 -61 -51 -31 -21 16 -31 125 -11 115 4 -2 19 -10 35 -17z m689 -41 c8
-49 6 -55 -17 -47 -10 5 -15 20 -15 53 0 59 22 55 32 -6z m-2456 -54 c58 -27
106 -80 123 -135 15 -52 15 -293 -1 -309 -16 -16 -53 -15 -66 1 -5 6 -12 68
-14 137 -4 142 -18 179 -77 214 -122 71 -257 -60 -195 -190 20 -41 45 -61 99
-75 49 -13 65 -26 65 -50 0 -74 -124 -61 -214 22 -45 42 -49 50 -38 66 46 66
52 81 52 124 0 33 -7 57 -24 82 l-25 36 44 39 c52 46 90 60 165 61 38 1 70 -6
106 -23z m559 5 c51 -23 111 -89 125 -138 7 -24 10 -98 8 -199 -3 -159 -3
-161 -33 -209 -44 -70 -117 -109 -204 -109 -67 0 -107 15 -161 56 -56 44 -77
108 -41 128 33 17 48 12 93 -36 37 -38 52 -47 90 -51 79 -9 159 54 157 125 0
20 -3 31 -6 24 -16 -41 -158 -57 -231 -26 -155 64 -195 277 -74 392 66 62 193
82 277 43z m562 -2 c80 -38 133 -124 133 -213 l0 -36 -183 0 c-101 0 -187 -3
-190 -6 -13 -13 29 -66 65 -85 44 -23 72 -24 126 -5 35 13 43 12 62 -1 14 -10
20 -23 18 -41 -4 -38 -62 -63 -144 -63 -147 0 -257 121 -241 263 15 127 108
207 241 208 51 0 81 -6 113 -21z m1417 5 c3 -9 6 -29 6 -46 0 -46 -24 -29 -28
20 -3 41 10 57 22 26z m-593 -4 c15 -8 19 -22 19 -60 0 -54 -4 -58 -38 -34
-17 12 -22 25 -22 60 0 45 7 52 41 34z m287 -20 c3 -21 2 -22 -12 -11 -19 16
-21 44 -3 39 6 -3 14 -15 15 -28z m1477 10 c-3 -5 -15 -10 -26 -10 -10 0 -19
5 -19 10 0 6 12 10 26 10 14 0 23 -4 19 -10z m-1358 -63 c4 -30 3 -37 -11 -37
-12 0 -16 10 -16 47 0 55 17 48 27 -10z m-2761 -2 c3 -8 -4 -31 -16 -51 -29
-46 -29 -100 1 -153 18 -32 20 -44 11 -53 -17 -17 -40 -1 -64 43 -28 49 -22
152 12 197 25 34 47 41 56 17z m3024 -26 c0 -36 -2 -40 -15 -29 -15 13 -20 51
-8 63 15 16 23 4 23 -34z m-518 14 c19 -17 26 -93 9 -93 -32 0 -41 14 -41 61
0 53 4 57 32 32z m356 -63 c3 -39 2 -42 -12 -31 -19 16 -22 85 -3 79 6 -3 13
-24 15 -48z m226 24 c3 -9 6 -29 6 -46 0 -46 -24 -29 -28 20 -3 41 10 57 22
26z m-3029 -21 c-4 -16 -7 -39 -7 -53 0 -14 3 -37 7 -52 6 -24 4 -28 -13 -28
-12 0 -28 10 -36 22 -33 47 -10 138 36 138 17 0 19 -4 13 -27z m3686 4 c-10
-9 -11 -8 -5 6 3 10 9 15 12 12 3 -3 0 -11 -7 -18z m2592 6 c-7 -2 -19 -2 -25
0 -7 3 -2 5 12 5 14 0 19 -2 13 -5z m-3695 -25 c17 -17 16 -88 -1 -88 -23 0
-37 23 -37 62 0 39 15 49 38 26z m3867 2 c4 -6 -38 -10 -119 -10 -77 0 -126 4
-126 10 0 6 46 10 119 10 69 0 122 -4 126 -10z m-3559 -45 c7 -38 2 -51 -15
-40 -14 8 -15 75 -1 75 5 0 12 -16 16 -35z m-2831 15 c9 -15 -14 -40 -31 -33
-22 8 -18 43 5 43 11 0 23 -5 26 -10z m3027 -30 c5 -60 -21 -49 -28 11 -3 20
1 29 10 29 9 0 15 -15 18 -40z m766 13 c-5 -25 -28 -28 -28 -4 0 12 6 21 16
21 9 0 14 -7 12 -17z m-1560 -19 c19 -6 22 -13 22 -60 0 -30 -3 -54 -7 -54
-27 1 -53 45 -53 89 0 33 2 34 38 25z m226 -9 c11 -8 16 -15 10 -15 -5 0 -18
7 -28 15 -11 8 -16 15 -10 15 5 0 18 -7 28 -15z m184 -38 c3 -39 0 -46 -12
-41 -11 4 -16 20 -16 51 0 61 24 52 28 -10z m1102 9 c0 -47 6 -42 -99 -84 -10
-4 -11 -1 -4 14 6 10 8 25 6 32 -5 14 13 35 57 65 36 25 40 22 40 -27z m210
37 c-1 -28 -71 -58 -108 -45 -23 7 -12 32 21 41 40 11 87 13 87 4z m-1050 -43
c0 -22 -4 -40 -9 -40 -13 0 -18 19 -13 52 6 42 22 34 22 -12z m170 -6 c0 -19
-4 -34 -9 -34 -12 0 -22 45 -15 64 10 25 24 8 24 -30z m1100 6 c0 -5 -16 -10
-35 -10 -19 0 -35 5 -35 10 0 6 16 10 35 10 19 0 35 -4 35 -10z m58 1 c6 -1
12 -10 12 -22 0 -16 -5 -20 -22 -17 -13 2 -22 9 -20 16 1 6 -2 12 -8 12 -5 0
-10 4 -10 9 0 5 8 8 18 6 9 -2 23 -4 30 -4z m-188 -21 c0 -5 -15 -10 -32 -10
-25 0 -29 3 -18 10 20 13 50 13 50 0z m-1659 -10 c14 -8 19 -21 19 -55 0 -47
-12 -56 -42 -32 -11 8 -14 24 -11 55 6 46 6 47 34 32z m359 -35 c0 -35 -3 -43
-15 -39 -10 4 -15 20 -15 45 0 28 4 39 15 39 11 0 15 -12 15 -45z m223 -24
c-2 -3 -8 0 -14 6 -7 7 -9 22 -4 40 l9 28 6 -35 c3 -19 5 -37 3 -39z m137 33
c0 -13 -4 -24 -10 -24 -5 0 -10 14 -10 31 0 17 4 28 10 24 6 -3 10 -17 10 -31z
m730 12 c0 -15 -58 -28 -66 -14 -3 4 5 12 18 17 33 14 48 13 48 -3z m750 -1
c0 -9 -9 -15 -22 -15 -22 1 -23 1 -4 15 25 19 26 19 26 0z m-2055 -23 c-3 -3
-11 0 -18 7 -9 10 -8 11 6 5 10 -3 15 -9 12 -12z m1510 8 c3 -5 1 -10 -4 -10
-6 0 -11 5 -11 10 0 6 2 10 4 10 3 0 8 -4 11 -10z m153 4 c77 -10 64 -26 -15
-20 -38 2 -78 5 -90 5 -13 1 -23 6 -23 11 0 11 51 13 128 4z m-438 -9 c0 -8
-57 -35 -62 -29 -3 2 -11 -2 -18 -11 -7 -8 -19 -15 -26 -15 -17 0 -18 -17 -1
-23 9 -3 9 -8 1 -16 -9 -10 -13 -6 -18 14 -4 15 -6 29 -4 30 30 28 128 66 128
50z m230 -5 c0 -5 -18 -10 -41 -10 -24 0 -38 4 -34 10 3 6 22 10 41 10 19 0
34 -4 34 -10z m-1152 -48 c-5 -55 -28 -53 -28 2 0 37 3 44 16 39 10 -4 14 -16
12 -41z m-308 18 c25 -25 28 -88 4 -97 -13 -5 -13 -7 -2 -14 9 -6 9 -9 1 -9
-6 0 -27 17 -46 37 -31 32 -34 39 -24 60 8 17 13 20 19 11 5 -9 8 -6 8 10 0
27 14 28 40 2z m66 4 c18 -14 18 -14 -6 -3 -31 14 -36 19 -24 19 6 0 19 -7 30
-16z m434 -15 c0 -17 -4 -28 -10 -24 -5 3 -10 17 -10 31 0 13 5 24 10 24 6 0
10 -14 10 -31z m1540 22 c0 -10 -73 -41 -97 -41 -25 0 -4 17 42 33 50 18 55
19 55 8z m-770 -7 c0 -9 -72 -36 -79 -29 -10 10 30 35 56 35 13 0 23 -2 23 -6z
m-920 -32 c0 -8 -1 -13 -3 -11 -1 2 -9 12 -16 22 -12 15 -12 17 3 11 9 -3 16
-13 16 -22z m1074 19 c4 -5 -8 -12 -26 -16 -18 -4 -41 -9 -50 -11 -12 -4 -18
0 -18 10 0 19 84 34 94 17z m86 1 c0 -5 -7 -9 -15 -9 -8 0 -15 4 -15 9 0 4 7
8 15 8 8 0 15 -4 15 -8z m-1380 -28 c0 -2 -9 0 -20 6 -11 6 -20 13 -20 16 0 2
9 0 20 -6 11 -6 20 -13 20 -16z m3130 16 c0 -5 -5 -10 -11 -10 -5 0 -7 5 -4
10 3 6 8 10 11 10 2 0 4 -4 4 -10z m-3035 -10 c3 -5 2 -10 -4 -10 -5 0 -13 5
-16 10 -3 6 -2 10 4 10 5 0 13 -4 16 -10z m150 -9 c3 -5 1 -12 -5 -16 -5 -3
-10 1 -10 9 0 18 6 21 15 7z m1514 -12 c-20 -13 -122 -11 -114 1 4 6 26 10 51
9 24 -2 47 0 50 4 4 3 11 4 16 0 6 -3 4 -9 -3 -14z m-1756 -53 c4 -30 2 -43
-11 -53 -13 -9 -14 -12 -3 -13 8 0 12 -2 9 -5 -10 -10 -38 7 -38 24 0 10 -3
12 -8 5 -8 -13 -46 -2 -57 16 -5 9 -1 10 14 5 26 -8 27 3 4 21 -12 9 -14 13
-5 14 7 0 10 5 6 12 -5 7 0 9 14 6 14 -4 22 0 25 14 9 33 44 2 50 -46z m37 54
c8 -5 11 -10 5 -10 -5 0 -17 5 -25 10 -8 5 -10 10 -5 10 6 0 17 -5 25 -10z
m485 0 c3 -5 -1 -10 -10 -10 -9 0 -13 5 -10 10 3 6 8 10 10 10 2 0 7 -4 10
-10z m945 0 c0 -5 -13 -10 -30 -10 -16 0 -30 5 -30 10 0 6 14 10 30 10 17 0
30 -4 30 -10z m1390 0 c0 -5 -5 -10 -11 -10 -5 0 -7 5 -4 10 3 6 8 10 11 10 2
0 4 -4 4 -10z m-3105 -10 c3 -6 -1 -7 -9 -4 -18 7 -21 14 -7 14 6 0 13 -4 16
-10z m1315 1 c0 -5 -7 -11 -15 -15 -15 -5 -20 5 -8 17 9 10 23 9 23 -2z m225
-1 c-3 -5 -19 -10 -36 -10 -16 0 -29 5 -29 10 0 6 16 10 36 10 21 0 33 -4 29
-10z m295 0 c0 -13 -30 -13 -50 0 -11 7 -7 10 18 10 17 0 32 -4 32 -10z m340
1 c0 -5 -26 -18 -57 -29 -32 -11 -66 -23 -75 -27 -10 -4 -18 -3 -18 3 0 5 33
21 73 35 39 14 73 25 75 26 1 1 2 -3 2 -8z m1548 -8 c5 -17 -26 -29 -40 -15
-6 6 -7 15 -3 22 9 14 37 9 43 -7z m57 -4 c0 -7 -8 -15 -17 -17 -18 -3 -25 18
-11 32 10 10 28 1 28 -15z m-3191 -5 c3 -8 2 -12 -4 -9 -6 3 -10 10 -10 16 0
14 7 11 14 -7z m2396 12 c0 -3 -4 -8 -10 -11 -5 -3 -10 -1 -10 4 0 6 5 11 10
11 6 0 10 -2 10 -4z m535 -16 c0 -8 -10 -16 -22 -18 -22 -3 -32 16 -16 32 12
11 38 2 38 -14z m57 -12 c-9 -9 -15 -9 -24 0 -10 10 -10 15 2 22 20 12 38 -6
22 -22z m78 17 c0 -8 -9 -15 -20 -15 -11 0 -20 7 -20 15 0 8 9 15 20 15 11 0
20 -7 20 -15z m-3315 -13 c-3 -3 -11 0 -18 7 -9 10 -8 11 6 5 10 -3 15 -9 12
-12z m110 -17 l20 -16 -20 10 c-11 5 -29 17 -40 26 l-20 16 20 -10 c11 -5 29
-17 40 -26z m790 0 c-33 -26 -45 -31 -45 -15 0 12 62 52 69 44 3 -3 -8 -16
-24 -29z m125 22 c0 -8 -19 -19 -42 -26 -24 -7 -62 -24 -85 -37 -47 -27 -60
-16 -16 13 25 17 120 60 136 62 4 1 7 -5 7 -12z m620 -2 c0 -11 -12 -15 -45
-15 -57 0 -59 18 -2 23 23 2 43 4 45 5 1 1 2 -5 2 -13z m580 5 c0 -5 -5 -10
-11 -10 -5 0 -7 5 -4 10 3 6 8 10 11 10 2 0 4 -4 4 -10z m350 0 c0 -5 -4 -10
-10 -10 -5 0 -10 5 -10 10 0 6 5 10 10 10 6 0 10 -4 10 -10z m465 -11 c0 -7
-8 -15 -17 -17 -18 -3 -25 18 -11 32 10 10 28 1 28 -15z m-3455 1 c0 -5 -2
-10 -4 -10 -3 0 -8 5 -11 10 -3 6 -1 10 4 10 6 0 11 -4 11 -10z m145 0 c3 -6
-1 -7 -9 -4 -18 7 -21 14 -7 14 6 0 13 -4 16 -10z m1678 4 c60 -10 44 -26 -20
-20 -32 3 -61 5 -65 5 -5 1 -8 6 -8 11 0 11 37 13 93 4z m1697 -4 c0 -5 -7
-10 -16 -10 -8 0 -12 5 -9 10 3 6 10 10 16 10 5 0 9 -4 9 -10z m-130 -10 c0
-5 -7 -10 -15 -10 -8 0 -15 5 -15 10 0 6 7 10 15 10 8 0 15 -4 15 -10z m-3324
-15 c10 -8 14 -15 8 -15 -5 0 -19 7 -30 15 -10 8 -14 15 -8 15 5 0 19 -7 30
-15z m340 4 c10 -18 13 -83 3 -95 -5 -6 4 -16 26 -26 l35 -16 0 45 c0 39 2 44
15 33 8 -7 15 -27 15 -45 0 -43 -24 -49 -81 -19 -24 13 -40 23 -36 24 4 0 3 9
-3 20 -6 11 -8 36 -4 55 6 36 17 44 30 24z m2852 -1 c-7 -19 -38 -22 -38 -4 0
10 9 16 21 16 12 0 19 -5 17 -12z m52 2 c0 -5 -4 -10 -10 -10 -5 0 -10 5 -10
10 0 6 5 10 10 10 6 0 10 -4 10 -10z m-1230 -9 c0 -14 -27 -21 -81 -21 -52 0
-68 16 -21 22 69 8 102 8 102 -1z m1048 -9 c2 -7 -6 -12 -17 -12 -21 0 -27 11
-14 24 9 9 26 2 31 -12z m62 8 c0 -5 -7 -10 -15 -10 -8 0 -15 5 -15 10 0 6 7
10 15 10 8 0 15 -4 15 -10z m-2665 -35 l20 -16 -20 10 c-11 5 -29 17 -40 26
l-20 16 20 -10 c11 -5 29 -17 40 -26z m905 25 c0 -11 -42 -30 -66 -30 -24 0
-16 18 14 28 36 14 52 14 52 2z m1570 -10 c0 -13 -7 -20 -20 -20 -19 0 -27 20
-13 33 13 14 33 6 33 -13z m60 5 c0 -8 -7 -15 -15 -15 -8 0 -15 7 -15 15 0 8
7 15 15 15 8 0 15 -7 15 -15z m-2992 -20 c8 -7 16 -30 19 -51 l4 -39 -25 30
c-13 17 -32 43 -41 59 -17 28 -17 28 6 21 13 -4 30 -13 37 -20z m68 9 c18 -14
18 -14 -6 -3 -31 14 -36 19 -24 19 6 0 19 -7 30 -16z m1574 6 c0 -5 -24 -10
-52 -10 -29 0 -71 -3 -93 -6 -44 -7 -40 11 5 19 50 9 140 7 140 -3z m60 0 c0
-5 -9 -10 -20 -10 -11 0 -20 5 -20 10 0 6 9 10 20 10 11 0 20 -4 20 -10z
m1895 -10 c0 -8 -10 -16 -22 -18 -22 -3 -32 16 -16 32 12 11 38 2 38 -14z m65
5 c0 -8 -9 -15 -20 -15 -11 0 -20 7 -20 15 0 8 9 15 20 15 11 0 20 -7 20 -15z
m60 0 c0 -8 -9 -15 -20 -15 -20 0 -26 11 -13 23 12 13 33 7 33 -8z m-1200 -5
c0 -5 -4 -10 -10 -10 -5 0 -10 5 -10 10 0 6 5 10 10 10 6 0 10 -4 10 -10z
m340 -5 c0 -8 -7 -15 -15 -15 -16 0 -20 12 -8 23 11 12 23 8 23 -8z m535 -5
c0 -8 -10 -16 -22 -18 -22 -3 -32 16 -16 32 12 11 38 2 38 -14z m65 5 c0 -8
-9 -15 -20 -15 -11 0 -20 7 -20 15 0 8 9 15 20 15 11 0 20 -7 20 -15z m60 0
c0 -8 -9 -15 -20 -15 -20 0 -26 11 -13 23 12 13 33 7 33 -8z m262 3 c-9 -9
-15 -9 -24 0 -9 9 -7 12 12 12 19 0 21 -3 12 -12z m-2642 -11 c0 -9 -108 -2
-119 8 -3 3 23 5 57 4 34 -1 62 -6 62 -12z m50 -3 c0 -7 -8 -10 -20 -7 -11 3
-20 9 -20 14 0 4 9 7 20 6 11 -1 20 -7 20 -13z m770 6 c0 -5 -10 -10 -22 -9
-22 0 -22 1 -3 9 11 5 21 9 23 9 1 1 2 -3 2 -9z m786 -19 c-10 -16 -36 -13
-36 3 0 17 21 27 34 16 4 -5 5 -13 2 -19z m512 12 c5 -17 -26 -29 -40 -15 -6
6 -7 15 -3 22 9 14 37 9 43 -7z m62 2 c0 -8 -6 -15 -14 -15 -17 0 -28 14 -19
24 12 12 33 6 33 -9z m-3195 -5 c8 -13 -5 -13 -25 0 -13 8 -13 10 2 10 9 0 20
-4 23 -10z m1129 -5 c-25 -19 -40 -19 -24 0 7 8 20 15 28 15 13 0 12 -3 -4
-15z m1543 9 c-3 -3 -12 -4 -19 -1 -8 3 -5 6 6 6 11 1 17 -2 13 -5z m388 -15
c-8 -12 -35 -12 -35 0 0 11 22 20 33 14 4 -2 5 -9 2 -14z m-3114 1 c6 0 7 -4
4 -10 -3 -5 0 -7 9 -4 22 8 56 -14 56 -36 0 -23 4 -24 31 -10 13 8 19 7 19 0
0 -7 6 -10 13 -7 20 7 47 -12 48 -36 1 -17 2 -18 6 -4 2 9 11 17 19 17 10 0
14 -14 14 -51 0 -44 -2 -50 -15 -39 -8 6 -19 9 -25 5 -6 -3 -33 8 -61 25 -28
17 -57 29 -63 27 -6 -3 -29 5 -51 17 -37 21 -40 26 -43 71 -3 41 -1 47 13 41
9 -3 21 -6 26 -6z m709 0 c0 -5 -4 -10 -10 -10 -5 0 -10 5 -10 10 0 6 5 10 10
10 6 0 10 -4 10 -10z m556 -5 c-11 -8 -29 -15 -40 -15 -21 1 -21 1 -2 15 11 8
29 15 40 15 21 -1 21 -1 2 -15z m304 6 c0 -4 -29 -11 -65 -15 -36 -4 -79 -9
-95 -13 -23 -4 -30 -2 -30 10 0 11 12 17 43 20 85 7 147 7 147 -2z m100 -1 c0
-5 -12 -10 -26 -10 -14 0 -23 4 -19 10 3 6 15 10 26 10 10 0 19 -4 19 -10z
m940 0 c0 -5 -7 -10 -16 -10 -8 0 -12 5 -9 10 3 6 10 10 16 10 5 0 9 -4 9 -10z
m380 -10 c0 -13 -7 -20 -19 -20 -22 0 -35 15 -26 30 12 19 45 11 45 -10z m60
5 c0 -8 -6 -15 -14 -15 -17 0 -28 14 -19 24 12 12 33 6 33 -9z m-2923 -21 c-6
-6 -47 9 -47 17 0 5 11 3 25 -3 14 -6 24 -13 22 -14z m103 5 c0 -4 -7 -6 -15
-3 -8 4 -15 10 -15 15 0 4 7 6 15 3 8 -4 15 -10 15 -15z m738 9 c-5 -14 -48
-22 -48 -9 0 8 17 16 43 20 5 0 7 -4 5 -11z m37 2 c3 -5 -1 -10 -10 -10 -9 0
-13 5 -10 10 3 6 8 10 10 10 2 0 7 -4 10 -10z m1545 -5 c0 -8 -4 -15 -10 -15
-5 0 -10 7 -10 15 0 8 5 15 10 15 6 0 10 -7 10 -15z m363 -16 c-17 -17 -37 -1
-22 17 8 10 15 12 23 4 7 -7 7 -13 -1 -21z m-1823 11 c0 -5 -16 -10 -35 -10
-19 0 -35 5 -35 10 0 6 16 10 35 10 19 0 35 -4 35 -10z m40 0 c0 -5 -5 -10
-11 -10 -5 0 -7 5 -4 10 3 6 8 10 11 10 2 0 4 -4 4 -10z m240 0 c0 -5 -12 -12
-27 -16 -16 -3 -43 -10 -62 -15 -38 -9 -51 -5 -33 13 19 19 122 35 122 18z
m460 6 c0 -3 -4 -8 -10 -11 -5 -3 -10 -1 -10 4 0 6 5 11 10 11 6 0 10 -2 10
-4z m673 -11 c1 -5 -6 -11 -15 -13 -11 -2 -18 3 -18 13 0 17 30 18 33 0z m357
0 c0 -16 -27 -32 -37 -22 -3 4 -3 13 0 22 8 20 37 20 37 0z m660 -10 c0 -25
-23 -35 -35 -15 -10 16 2 40 20 40 9 0 15 -9 15 -25z m-1070 0 c0 -8 -7 -15
-15 -15 -8 0 -15 7 -15 15 0 8 7 15 15 15 8 0 15 -7 15 -15z m340 0 c0 -8 -7
-15 -15 -15 -26 0 -18 20 13 29 1 1 2 -6 2 -14z m860 0 c0 -8 -7 -15 -15 -15
-8 0 -15 7 -15 15 0 8 7 15 15 15 8 0 15 -7 15 -15z m63 8 c8 -7 -11 -33 -24
-33 -5 0 -9 9 -9 20 0 19 20 27 33 13z m-3543 -13 c8 -5 12 -11 9 -14 -3 -3
-14 1 -25 9 -21 16 -8 20 16 5z m1530 -11 c0 -5 -11 -9 -25 -9 -14 0 -25 6
-25 14 0 9 8 12 25 8 14 -2 25 -8 25 -13z m700 6 c0 -8 -9 -15 -20 -15 -20 0
-26 11 -13 23 12 13 33 7 33 -8z m330 1 c0 -8 -5 -18 -11 -22 -14 -8 -33 11
-25 25 10 16 36 13 36 -3z m520 -12 c0 -8 -9 -14 -20 -14 -19 0 -27 19 -14 33
10 9 34 -4 34 -19z m-2820 -19 c0 -19 -4 -35 -10 -35 -5 0 -10 16 -10 35 0 19
5 35 10 35 6 0 10 -16 10 -35z m636 22 c4 -4 -5 -7 -19 -7 -15 0 -27 4 -27 8
0 10 36 9 46 -1z m1284 -8 c0 -5 -7 -9 -15 -9 -15 0 -20 12 -9 23 8 8 24 -1
24 -14z m320 6 c0 -8 -7 -15 -15 -15 -26 0 -18 20 13 29 1 1 2 -6 2 -14z m518
-2 c-5 -26 -38 -29 -38 -4 0 15 6 21 21 21 14 0 19 -5 17 -17z m-2088 -3 c0
-5 -2 -10 -4 -10 -3 0 -8 5 -11 10 -3 6 -1 10 4 10 6 0 11 -4 11 -10z m1510
-5 c0 -8 -7 -15 -15 -15 -16 0 -20 12 -8 23 11 12 23 8 23 -8z m-2340 -25 c30
-16 51 -29 46 -30 -11 0 -116 51 -116 56 0 8 17 2 70 -26z m1980 10 c0 -11 -7
-20 -15 -20 -15 0 -21 21 -8 33 12 13 23 7 23 -13z m40 10 c0 -5 -4 -10 -10
-10 -5 0 -10 5 -10 10 0 6 5 10 10 10 6 0 10 -4 10 -10z m268 -7 c-5 -26 -38
-29 -38 -4 0 15 6 21 21 21 14 0 19 -5 17 -17z m432 -3 c0 -15 -7 -20 -25 -20
-24 0 -34 18 -18 33 15 15 43 7 43 -13z m-1816 -5 c-10 -8 -23 -14 -29 -14 -5
0 -1 6 9 14 11 8 24 15 30 15 5 0 1 -7 -10 -15z m1326 0 c0 -8 -7 -15 -15 -15
-8 0 -15 7 -15 15 0 8 7 15 15 15 8 0 15 -7 15 -15z m420 0 c0 -8 -7 -15 -15
-15 -8 0 -15 7 -15 15 0 8 7 15 15 15 8 0 15 -7 15 -15z m-2429 -58 c-8 -8
-11 0 -10 29 1 39 1 39 11 11 7 -21 7 -32 -1 -40z m449 53 c0 -5 -10 -10 -22
-10 -19 0 -20 2 -8 10 19 13 30 13 30 0z m190 -1 c0 -12 -99 -10 -125 1 -14 6
3 9 53 8 39 0 72 -5 72 -9z m325 -4 c0 -5 -15 -11 -32 -13 -32 -3 -45 11 -20
22 19 8 52 2 52 -9z m235 5 c0 -5 -22 -10 -50 -10 -27 0 -50 5 -50 10 0 6 23
10 50 10 28 0 50 -4 50 -10z m764 1 c9 -15 -23 -36 -36 -23 -5 5 -7 15 -4 21
9 13 33 14 40 2z m-1244 -11 c0 -5 -9 -14 -20 -20 -16 -8 -20 -8 -20 4 0 13
13 23 33 25 4 1 7 -3 7 -9z m1188 -13 c2 -12 -3 -17 -17 -17 -12 0 -21 6 -21
13 0 31 32 34 38 4z m-2003 3 c3 -6 -1 -7 -9 -4 -18 7 -21 14 -7 14 6 0 13 -4
16 -10z m1949 1 c3 -5 -1 -14 -9 -21 -13 -10 -15 -9 -15 9 0 21 14 28 24 12z
m-2336 -26 c-3 -3 -9 2 -12 12 -6 14 -5 15 5 6 7 -7 10 -15 7 -18z m270 -32
c-2 -20 -9 -38 -15 -41 -17 -5 -32 37 -26 71 5 23 8 25 25 16 14 -8 18 -19 16
-46z m798 47 c13 0 24 -5 24 -10 0 -6 -16 -9 -37 -6 -21 3 -47 5 -58 6 l-20 1
20 9 c11 5 26 7 33 4 8 -2 25 -4 38 -4z m234 6 c0 -3 -4 -8 -10 -11 -5 -3 -10
-1 -10 4 0 6 5 11 10 11 6 0 10 -2 10 -4z m990 -16 c0 -11 -7 -20 -15 -20 -8
0 -15 9 -15 20 0 11 7 20 15 20 8 0 15 -9 15 -20z m-1595 0 c3 -5 -1 -10 -10
-10 -9 0 -13 5 -10 10 3 6 8 10 10 10 2 0 7 -4 10 -10z m446 -53 c-15 -15 -26
0 -12 17 9 11 9 15 0 18 -8 3 -9 9 -4 18 7 11 11 7 18 -14 6 -19 6 -31 -2 -39z
m379 53 c0 -11 -22 -16 -98 -24 -39 -4 -52 -2 -49 7 6 20 147 37 147 17z m170
-5 c0 -12 -33 -16 -77 -8 -54 9 -37 24 22 21 30 -2 55 -7 55 -13z m550 1 c0
-8 -4 -17 -9 -21 -12 -7 -24 12 -16 25 9 15 25 12 25 -4z m-2201 -5 c13 -9 23
-71 11 -71 -3 0 -13 13 -23 29 -26 45 -21 63 12 42z m311 -2 c0 -5 -5 -7 -11
-3 -6 3 -15 0 -20 -7 -4 -7 -11 -10 -14 -7 -11 11 5 28 26 28 10 0 19 -5 19
-11z m1004 -8 c3 -4 -25 -16 -62 -25 -80 -19 -85 -19 -80 -4 7 21 131 47 142
29z m-1253 -11 c12 -7 19 -21 19 -41 0 -26 -3 -30 -22 -27 -19 2 -24 10 -26
41 -3 40 -1 42 29 27z m1009 -10 c0 -4 -10 -6 -22 -5 -13 1 -34 3 -48 4 -22 2
-22 3 -6 10 22 8 76 2 76 -9z m2470 -6 c0 -17 -36 -19 -46 -3 -8 14 14 29 33
22 7 -3 13 -11 13 -19z m68 3 c4 -20 -25 -34 -40 -19 -15 15 -1 44 19 40 10
-2 19 -11 21 -21z m60 0 c2 -12 -3 -17 -17 -17 -12 0 -21 6 -21 13 0 31 32 34
38 4z m-3325 -7 c-4 -16 -8 -18 -19 -9 -16 13 -10 29 11 29 8 0 11 -7 8 -20z
m1177 -1 c0 -5 -10 -7 -22 -5 -34 7 -34 7 -13 15 22 9 35 5 35 -10z m108 15
c35 -10 26 -24 -17 -24 -51 0 -78 10 -59 21 15 10 44 11 76 3z m1710 -17 c3
-12 -3 -17 -22 -17 -25 0 -35 18 -19 34 12 12 38 2 41 -17z m67 3 c0 -8 -10
-16 -22 -18 -18 -3 -23 2 -23 18 0 16 5 21 23 18 12 -2 22 -10 22 -18z m65 0
c0 -23 -22 -27 -39 -7 -13 16 -5 27 21 27 11 0 18 -7 18 -20z m-3162 -33 c3
-40 -9 -47 -35 -21 -13 13 -14 19 -3 40 18 33 34 25 38 -19z m100 18 c1 -1
-11 -2 -28 -1 -29 1 -36 6 -24 19 5 5 37 -6 52 -18z m42 4 c0 -5 -7 -9 -15 -9
-15 0 -20 12 -9 23 8 8 24 -1 24 -14z m920 6 c0 -8 -9 -15 -20 -15 -22 0 -27
15 -7 23 21 9 27 7 27 -8z m1765 -10 c0 -13 -8 -21 -22 -23 -17 -3 -23 2 -23
16 0 10 3 22 7 26 13 13 38 1 38 -19z m71 13 c4 -6 -1 -17 -12 -25 -15 -11
-20 -11 -32 1 -8 8 -11 19 -8 25 9 14 43 14 52 -1z m64 -3 c0 -9 -7 -18 -16
-22 -18 -7 -39 11 -30 26 11 17 46 13 46 -4z m-5780 -10 c0 -13 -12 -15 -72
-13 -46 2 -73 7 -76 16 -3 9 16 12 72 12 62 0 76 -3 76 -15z m131 -53 l36 -64
39 66 c54 93 64 88 64 -34 0 -60 -4 -100 -10 -100 -6 0 -10 28 -10 65 0 36 -3
65 -7 65 -5 0 -21 -23 -36 -50 -16 -28 -34 -50 -41 -50 -7 0 -26 24 -42 53
l-29 52 -3 -67 c-2 -52 -6 -68 -17 -68 -12 0 -15 19 -15 101 0 89 2 100 17 97
9 -2 33 -32 54 -66z m329 48 c46 -46 8 -120 -62 -120 -36 0 -38 -2 -38 -30 0
-20 -5 -30 -15 -30 -11 0 -15 12 -15 49 l0 49 51 -2 c94 -2 97 64 4 74 -71 7
-71 30 -1 30 43 0 61 -5 76 -20z m202 3 c25 -30 29 -53 12 -88 -14 -30 -14
-36 1 -64 14 -27 14 -31 1 -31 -9 0 -22 14 -31 30 -12 23 -22 30 -45 30 -24 0
-29 -5 -32 -27 -2 -14 -9 -28 -15 -31 -9 -2 -13 11 -13 46 l0 50 45 -6 c49 -5
75 8 75 38 0 27 -27 44 -73 45 -64 2 -59 25 6 25 39 0 58 -5 69 -17z m238 7
c0 -5 -16 -11 -35 -12 -19 -1 -50 -2 -67 -3 -38 -2 -58 3 -58 16 0 5 36 9 80
9 47 0 80 -4 80 -10z m210 -2 c0 -9 -16 -13 -52 -11 -66 2 -78 -4 -78 -33 0
-21 5 -24 39 -24 84 0 122 -42 87 -95 -15 -22 -23 -25 -81 -25 -51 0 -65 3
-65 15 0 12 13 15 60 15 45 0 62 4 66 15 10 26 -16 45 -62 45 -48 0 -74 19
-74 55 0 41 25 55 96 55 44 0 64 -4 64 -12z m189 -81 c36 -106 36 -107 17
-107 -9 0 -23 26 -37 70 -13 38 -25 67 -28 64 -3 -3 -15 -33 -27 -67 -13 -38
-27 -63 -37 -65 -14 -3 -12 11 13 85 17 48 32 94 35 101 2 6 11 12 19 12 9 0
25 -33 45 -93z m249 81 c-3 -8 -26 -14 -62 -15 -62 -1 -82 -12 -73 -37 5 -11
20 -16 49 -16 58 0 88 -22 88 -64 0 -17 -5 -37 -12 -44 -17 -17 -151 -16 -146
1 3 7 28 13 67 15 61 3 62 3 59 30 -3 25 -7 27 -53 30 -27 2 -55 8 -62 14 -16
13 -17 70 -1 86 17 17 151 16 146 0z m1092 -30 c0 -43 -34 -35 -38 9 -3 27 -1
31 17 26 15 -4 21 -13 21 -35z m1025 32 c-3 -5 -10 -10 -16 -10 -5 0 -9 5 -9
10 0 6 7 10 16 10 8 0 12 -4 9 -10z m165 1 c0 -13 -9 -17 -52 -25 -30 -5 -38
-4 -38 8 0 13 20 20 73 25 9 0 17 -3 17 -8z m1685 -16 c0 -22 -31 -33 -48 -16
-7 7 -6 15 3 26 17 21 45 15 45 -10z m70 5 c0 -9 -11 -16 -27 -18 -27 -3 -38
14 -21 32 12 12 48 2 48 -14z m-135 -10 c0 -24 -26 -38 -42 -22 -16 16 -2 42
22 42 13 0 20 -7 20 -20z m-2778 5 c10 -4 13 -16 10 -36 -6 -38 -26 -32 -29 9
-3 34 -2 35 19 27z m2653 -20 c0 -16 -7 -20 -35 -21 -19 -1 -42 -4 -51 -8 -21
-9 -33 19 -14 34 8 6 23 9 34 5 10 -3 22 -1 26 5 11 18 40 7 40 -15z m63 8
c-2 -10 -13 -19 -26 -21 -17 -3 -22 2 -22 17 0 16 6 21 26 21 19 0 25 -5 22
-17z m-2640 -5 c-3 -7 -15 -14 -29 -15 -14 -1 -17 0 -6 3 9 3 17 10 17 15 0 5
5 9 11 9 6 0 9 -6 7 -12z m142 -34 c0 -35 -13 -46 -24 -18 -8 21 4 65 15 58 5
-3 9 -21 9 -40z m810 36 c0 -5 -7 -10 -15 -10 -8 0 -15 5 -15 10 0 6 7 10 15
10 8 0 15 -4 15 -10z m330 -1 c0 -5 -18 -10 -40 -11 -22 -1 -55 -2 -72 -3 -43
-3 -60 7 -28 16 36 9 140 8 140 -2z m40 1 c0 -5 -4 -10 -10 -10 -5 0 -10 5
-10 10 0 6 5 10 10 10 6 0 10 -4 10 -10z m90 0 c0 -5 -13 -10 -30 -10 -16 0
-30 5 -30 10 0 6 14 10 30 10 17 0 30 -4 30 -10z m280 6 c0 -3 -4 -8 -10 -11
-5 -3 -10 -1 -10 4 0 6 5 11 10 11 6 0 10 -2 10 -4z m-790 -20 c0 -8 -7 -16
-15 -20 -15 -5 -21 14 -8 27 11 12 23 8 23 -7z m150 -16 c-20 -13 -97 -13 -84
-1 15 16 78 29 89 19 6 -6 5 -12 -5 -18z m1400 10 c0 -15 -7 -20 -25 -20 -24
0 -34 18 -18 33 15 15 43 7 43 -13z m-2350 -5 c0 -8 -4 -15 -10 -15 -5 0 -10
7 -10 15 0 8 5 15 10 15 6 0 10 -7 10 -15z m1326 -27 c-9 -12 -16 -17 -16 -10
0 7 -5 10 -10 7 -6 -4 -25 -3 -43 1 l-32 7 35 8 c20 4 40 3 47 -2 8 -7 14 -3
19 13 4 13 9 17 11 11 3 -7 -3 -23 -11 -35z m962 25 c-5 -26 -38 -29 -38 -4 0
15 6 21 21 21 14 0 19 -5 17 -17z m842 3 c0 -8 -5 -18 -11 -22 -14 -8 -33 11
-25 25 10 16 36 13 36 -3z m70 -1 c0 -8 -9 -15 -20 -15 -11 0 -20 7 -20 15 0
8 9 15 20 15 11 0 20 -7 20 -15z m60 0 c0 -8 -7 -15 -15 -15 -16 0 -20 12 -8
23 11 12 23 8 23 -8z m68 3 c-7 -19 -38 -22 -38 -4 0 10 9 16 21 16 12 0 19
-5 17 -12z m-3573 -21 c17 -5 33 -14 36 -19 3 -6 9 -9 13 -9 21 3 25 -1 22
-21 -3 -13 -5 -31 -5 -40 -1 -12 -9 -18 -25 -18 -27 0 -33 6 -75 79 -25 42
-28 52 -14 46 10 -4 32 -12 48 -18z m2473 6 c-5 -26 -38 -29 -38 -4 0 15 6 21
21 21 14 0 19 -5 17 -17z m-5142 -3 c32 0 44 -4 44 -14 0 -11 -14 -16 -47 -18
-44 -3 -48 -5 -51 -30 -3 -28 -3 -28 57 -28 48 0 61 -3 61 -15 0 -12 -14 -15
-70 -15 -38 0 -70 3 -71 8 -12 105 -9 128 17 118 9 -3 36 -6 60 -6z m922 -6
c28 -8 9 -23 -35 -26 -44 -3 -48 -5 -51 -30 -3 -26 -2 -27 57 -30 86 -4 76
-22 -14 -26 l-75 -3 0 65 0 65 53 -5 c28 -3 58 -7 65 -10z m2733 -7 c-10 -9
-11 -8 -5 6 3 10 9 15 12 12 3 -3 0 -11 -7 -18z m409 8 c0 -6 -20 -12 -45 -14
-44 -2 -63 13 -27 22 30 8 72 3 72 -8z m670 0 c0 -8 -4 -15 -10 -15 -18 0 -25
-2 -42 -11 -15 -8 -18 -6 -18 12 0 14 5 19 15 16 8 -4 17 -2 20 3 10 16 35 12
35 -5z m350 0 c0 -8 -9 -15 -20 -15 -20 0 -26 11 -13 23 12 13 33 7 33 -8z
m623 0 c1 -5 -6 -11 -15 -13 -11 -2 -18 3 -18 13 0 17 30 18 33 0z m67 0 c0
-8 -9 -15 -20 -15 -11 0 -20 7 -20 15 0 8 9 15 20 15 11 0 20 -7 20 -15z m60
5 c0 -5 -4 -10 -10 -10 -5 0 -10 5 -10 10 0 6 5 10 10 10 6 0 10 -4 10 -10z
m68 -2 c-6 -18 -28 -21 -28 -4 0 9 7 16 16 16 9 0 14 -5 12 -12z m72 2 c0 -5
-7 -10 -15 -10 -8 0 -15 5 -15 10 0 6 7 10 15 10 8 0 15 -4 15 -10z m-2390
-10 c12 -8 9 -10 -12 -10 -16 0 -28 5 -28 10 0 13 20 13 40 0z m150 3 c0 -5
-18 -18 -40 -30 -31 -16 -40 -18 -40 -7 0 8 15 20 33 28 38 17 47 19 47 9z
m1778 -10 c-4 -22 -48 -31 -48 -10 0 19 10 27 32 27 13 0 18 -6 16 -17z m62 2
c0 -8 -7 -15 -15 -15 -8 0 -15 7 -15 15 0 8 7 15 15 15 8 0 15 -7 15 -15z
m-930 -10 c0 -8 -4 -15 -10 -15 -5 0 -10 7 -10 15 0 8 5 15 10 15 6 0 10 -7
10 -15z m800 1 c0 -8 -7 -16 -15 -20 -10 -4 -15 1 -15 14 0 11 7 20 15 20 8 0
15 -6 15 -14z m-2433 -28 c-3 -7 -5 -2 -5 12 0 14 2 19 5 13 2 -7 2 -19 0 -25z
m801 20 c-3 -7 -20 -14 -39 -16 -32 -2 -33 -1 -15 13 24 18 59 20 54 3z m793
-11 c-13 -13 -26 -3 -16 12 3 6 11 8 17 5 6 -4 6 -10 -1 -17z m596 -3 c3 -9 0
-20 -8 -25 -23 -14 -29 -11 -29 16 0 28 27 35 37 9z m61 -1 c-2 -10 -12 -18
-23 -18 -11 0 -21 8 -23 18 -3 13 3 17 23 17 20 0 26 -4 23 -17z m917 -3 c0
-8 -10 -16 -22 -18 -22 -3 -32 16 -16 32 12 11 38 2 38 -14z m65 0 c0 -13 -7
-20 -20 -20 -13 0 -20 7 -20 20 0 13 7 20 20 20 13 0 20 -7 20 -20z m-2510 1
c0 -5 -18 -18 -40 -29 -28 -14 -40 -16 -40 -7 0 7 15 20 33 29 37 18 47 20 47
7z m245 -1 c6 -10 -26 -20 -57 -18 -28 2 -21 16 10 21 15 2 30 5 34 6 4 0 10
-3 13 -9z m115 0 c0 -5 -9 -10 -20 -10 -11 0 -20 5 -20 10 0 6 9 10 20 10 11
0 20 -4 20 -10z m130 0 c0 -5 -11 -10 -25 -10 -14 0 -25 5 -25 10 0 6 11 10
25 10 14 0 25 -4 25 -10z m350 6 c0 -3 -4 -8 -10 -11 -5 -3 -10 -1 -10 4 0 6
5 11 10 11 6 0 10 -2 10 -4z m570 -16 c0 -13 -7 -20 -20 -20 -13 0 -20 7 -20
20 0 13 7 20 20 20 13 0 20 -7 20 -20z m698 -3 c4 -20 -25 -34 -40 -19 -15 15
-1 44 19 40 10 -2 19 -11 21 -21z m202 8 c0 -8 -9 -15 -20 -15 -20 0 -26 11
-13 23 12 13 33 7 33 -8z m70 0 c0 -8 -9 -15 -20 -15 -11 0 -20 7 -20 15 0 8
9 15 20 15 11 0 20 -7 20 -15z m-3322 -7 c7 -7 12 -20 12 -31 0 -10 5 -15 10
-12 21 13 9 -25 -12 -39 -32 -23 -35 -21 -40 27 -7 62 4 81 30 55z m672 2 c0
-5 -4 -10 -10 -10 -5 0 -10 5 -10 10 0 6 5 10 10 10 6 0 10 -4 10 -10z m420
-5 c0 -6 -19 -12 -42 -14 -28 -1 -39 1 -33 7 19 19 75 24 75 7z m650 5 c0 -5
-4 -10 -10 -10 -5 0 -10 5 -10 10 0 6 5 10 10 10 6 0 10 -4 10 -10z m550 -4
c0 -8 -5 -18 -11 -22 -14 -8 -33 11 -25 25 10 16 36 13 36 -3z m698 -3 c-4
-20 -35 -30 -50 -15 -15 15 0 32 28 32 19 0 25 -5 22 -17z m125 2 c1 -5 -6
-11 -15 -13 -11 -2 -18 3 -18 13 0 17 30 18 33 0z m67 6 c0 -10 -30 -24 -37
-17 -3 3 -2 9 2 15 8 13 35 15 35 2z m-2540 -5 c0 -11 -19 -15 -25 -6 -3 5 1
10 9 10 9 0 16 -2 16 -4z m1590 -10 c0 -8 -4 -17 -9 -21 -12 -7 -24 12 -16 25
9 15 25 12 25 -4z m-2015 -7 c10 -15 5 -17 -40 -22 -22 -3 -46 -7 -54 -9 -7
-1 -15 2 -18 9 -2 7 13 15 39 21 59 13 66 14 73 1z m785 7 c0 -3 -4 -8 -10
-11 -5 -3 -10 -1 -10 4 0 6 5 11 10 11 6 0 10 -2 10 -4z m1660 -15 c0 -10 -9
-21 -19 -24 -24 -6 -31 0 -31 25 0 13 7 18 25 18 18 0 25 -5 25 -19z m255 9
c-3 -5 -13 -10 -21 -10 -8 0 -14 5 -14 10 0 6 9 10 21 10 11 0 17 -4 14 -10z
m-2180 -8 c-11 -11 -115 -26 -115 -17 0 10 40 21 84 24 25 1 37 -1 31 -7z
m565 -2 c0 -5 -3 -10 -7 -10 -5 0 -18 -3 -30 -6 -17 -5 -23 -2 -23 10 0 11 9
16 30 16 17 0 30 -4 30 -10z m75 0 c4 -6 -7 -10 -24 -10 -17 0 -31 5 -31 10 0
6 11 10 24 10 14 0 28 -4 31 -10z m65 0 c0 -5 -5 -10 -11 -10 -5 0 -7 5 -4 10
3 6 8 10 11 10 2 0 4 -4 4 -10z m1150 -10 c0 -13 -7 -20 -18 -20 -24 0 -32 8
-25 26 8 22 43 17 43 -6z m125 10 c3 -6 -1 -13 -10 -16 -19 -8 -30 0 -20 15 8
14 22 14 30 1z m-2625 -45 c0 -32 -4 -43 -13 -39 -20 7 -37 60 -24 73 24 24
37 11 37 -34z m2378 28 c-5 -26 -38 -29 -38 -4 0 15 6 21 21 21 14 0 19 -5 17
-17z m62 2 c0 -8 -9 -15 -20 -15 -11 0 -20 7 -20 15 0 8 9 15 20 15 11 0 20
-7 20 -15z m-1482 -7 c-5 -15 -68 -24 -68 -9 0 9 21 16 58 20 8 0 12 -5 10
-11z m1355 6 c9 -10 -4 -34 -19 -34 -8 0 -14 9 -14 20 0 19 19 27 33 14z m901
0 c23 -9 20 -44 -3 -44 -23 0 -35 15 -27 35 6 17 8 17 30 9z m84 -15 c2 -10
-6 -19 -18 -22 -23 -6 -34 7 -26 29 8 20 40 14 44 -7z m-2552 -2 c4 -4 -5 -7
-20 -7 -15 0 -25 4 -22 9 7 10 31 9 42 -2z m1459 -7 c0 -8 -10 -16 -22 -18
-22 -3 -32 16 -16 32 12 11 38 2 38 -14z m50 -1 c0 -7 -8 -15 -17 -17 -18 -3
-25 18 -11 32 10 10 28 1 28 -15z m838 15 c11 -11 -5 -34 -24 -34 -12 0 -19 7
-19 20 0 19 28 28 43 14z m67 -15 c0 -25 -33 -22 -38 4 -2 12 3 17 17 17 15 0
21 -6 21 -21z m-1020 -9 c0 -11 -7 -20 -15 -20 -27 0 -18 30 13 39 1 1 2 -8 2
-19z m688 -2 c3 -13 -3 -18 -22 -18 -20 0 -26 5 -26 21 0 15 5 20 22 17 13 -2
24 -11 26 -20z m-2755 -20 c5 -34 -8 -62 -24 -52 -5 3 -9 14 -9 25 0 11 -7 19
-16 19 -9 0 -14 6 -11 13 2 6 11 11 21 9 9 -2 16 2 16 8 0 25 18 7 23 -22z
m61 17 c11 -8 14 -15 8 -15 -15 0 -16 -36 -1 -46 18 -11 -7 -27 -31 -19 -21 7
-21 8 -4 26 13 15 15 22 6 31 -13 13 -16 38 -4 38 4 0 16 -7 26 -15z m696 5
c0 -11 -42 -30 -63 -30 -16 1 34 39 51 40 6 0 12 -5 12 -10z m420 6 c0 -3 -4
-8 -10 -11 -5 -3 -10 -1 -10 4 0 6 5 11 10 11 6 0 10 -2 10 -4z m1448 -13 c-4
-22 -38 -30 -49 -12 -11 19 -2 29 27 29 19 0 25 -5 22 -17z m60 -1 c2 -7 -6
-12 -17 -12 -21 0 -27 11 -14 24 9 9 26 2 31 -12z m132 9 c0 -12 -28 -22 -34
-12 -3 5 -3 11 1 15 9 9 33 7 33 -3z m140 -1 c0 -5 -9 -10 -20 -10 -11 0 -20
5 -20 10 0 6 9 10 20 10 11 0 20 -4 20 -10z m-3180 -10 c0 -5 -2 -10 -4 -10
-3 0 -8 5 -11 10 -3 6 -1 10 4 10 6 0 11 -4 11 -10z m1130 1 c0 -11 -25 -21
-56 -21 -28 0 -32 16 -6 23 31 8 62 7 62 -2z m1523 3 c10 -10 -12 -44 -27 -44
-8 0 -16 6 -19 14 -9 23 28 48 46 30z m125 -6 c-7 -19 -38 -22 -38 -4 0 10 9
16 21 16 12 0 19 -5 17 -12z m-1968 -8 c0 -5 -17 -10 -37 -9 -31 0 -34 2 -18
9 28 12 55 12 55 0z m90 0 c0 -5 -18 -10 -40 -10 -22 0 -40 5 -40 10 0 6 18
10 40 10 22 0 40 -4 40 -10z m1810 -5 c0 -8 -7 -15 -15 -15 -8 0 -15 7 -15 15
0 8 7 15 15 15 8 0 15 -7 15 -15z m-240 -10 c0 -16 -27 -32 -37 -22 -3 4 -3
13 0 22 8 20 37 20 37 0z m50 0 c0 -8 -7 -15 -15 -15 -8 0 -15 7 -15 15 0 8 7
15 15 15 8 0 15 -7 15 -15z m68 3 c-7 -19 -38 -22 -38 -4 0 10 9 16 21 16 12
0 19 -5 17 -12z m-2523 -17 c-3 -6 -14 -11 -23 -11 -15 1 -15 2 2 15 21 16 32
13 21 -4z m1133 1 c2 -7 -3 -12 -12 -12 -9 0 -16 7 -16 16 0 17 22 14 28 -4z
m162 8 c0 -5 -24 -10 -54 -10 -30 0 -61 -3 -70 -6 -11 -4 -16 -1 -16 10 0 13
12 16 70 16 40 0 70 -4 70 -10z m130 -2 c0 -5 -25 -8 -55 -8 -32 0 -55 4 -55
11 0 6 21 9 55 7 30 -2 55 -6 55 -10z m915 -9 c0 -7 -8 -15 -17 -17 -18 -3
-25 18 -11 32 10 10 28 1 28 -15z m-1247 -2 c-3 -6 -27 -15 -54 -18 -71 -9
-107 -16 -126 -24 -12 -5 -18 -3 -18 6 0 9 24 20 63 30 82 20 140 23 135 6z
m-348 -6 c0 -5 -13 -11 -30 -13 -29 -4 -37 1 -23 15 10 10 53 8 53 -2z m90 -1
c0 -5 -15 -10 -34 -10 -19 0 -38 5 -41 10 -4 6 10 10 34 10 23 0 41 -4 41 -10z
m-560 -31 c0 -10 -4 -19 -10 -19 -5 0 -10 12 -10 26 0 14 4 23 10 19 6 -3 10
-15 10 -26z m40 -37 c-7 -13 -9 -8 -9 23 0 35 1 37 10 17 6 -15 5 -30 -1 -40z
m105 48 c3 -5 -1 -10 -10 -10 -9 0 -13 5 -10 10 3 6 8 10 10 10 2 0 7 -4 10
-10z m875 1 c0 -12 -37 -21 -92 -21 -45 0 -63 12 -35 23 21 9 127 7 127 -2z
m138 -2 c-2 -6 -7 -10 -11 -10 -4 1 -32 1 -63 1 -34 0 -53 4 -49 10 9 14 128
13 123 -1z m-594 -20 c-8 -14 -24 -10 -24 6 0 9 6 12 15 9 8 -4 12 -10 9 -15z
m246 7 c0 -13 -59 -26 -118 -26 -40 0 -11 22 40 31 68 10 78 10 78 -5z m-340
-5 c-22 -12 -100 -21 -100 -11 0 11 26 17 75 19 26 0 35 -2 25 -8z m140 5 c0
-3 -4 -8 -10 -11 -5 -3 -10 -1 -10 4 0 6 5 11 10 11 6 0 10 -2 10 -4z m1040
-6 c0 -5 -5 -10 -11 -10 -5 0 -7 5 -4 10 3 6 8 10 11 10 2 0 4 -4 4 -10z
m-1573 -47 c-3 -10 -5 -2 -5 17 0 19 2 27 5 18 2 -10 2 -26 0 -35z m2038 37
c3 -5 1 -10 -4 -10 -6 0 -11 5 -11 10 0 6 2 10 4 10 3 0 8 -4 11 -10z m1061
-1 c3 -6 0 -17 -7 -25 -18 -17 -44 -2 -36 20 7 18 33 21 43 5z m-3256 -9 c0
-5 -9 -10 -20 -10 -11 0 -20 5 -20 10 0 6 9 10 20 10 11 0 20 -4 20 -10z m726
-22 c-1 -22 -7 -33 -16 -33 -10 0 -16 12 -18 33 -3 26 0 32 16 32 16 0 19 -6
18 -32z m374 17 c0 -11 -12 -15 -49 -15 -26 0 -69 -3 -95 -6 -38 -6 -46 -4
-46 9 0 13 14 17 73 20 39 1 82 4 95 5 14 1 22 -4 22 -13z m147 0 c-4 -11
-101 -19 -124 -11 -30 12 -3 21 61 21 39 0 65 -4 63 -10z m1471 -13 c3 -18 -1
-22 -22 -22 -19 0 -26 5 -26 18 0 39 43 43 48 4z m67 3 c0 -22 -31 -33 -47
-17 -17 17 -1 44 24 40 15 -2 23 -10 23 -23z m135 4 c0 -15 -5 -20 -22 -17
-34 5 -37 38 -4 38 20 0 26 -5 26 -21z m128 -2 c2 -12 -3 -17 -17 -17 -12 0
-21 6 -21 13 0 31 32 34 38 4z m68 12 c7 -12 -15 -31 -28 -23 -4 3 -8 12 -8
20 0 17 26 19 36 3z m-2876 -9 c0 -5 -6 -7 -13 -4 -8 3 -20 -2 -27 -11 -10
-13 -9 -15 8 -15 12 0 24 -5 27 -11 5 -7 -3 -9 -21 -7 -23 2 -30 9 -32 31 -3
24 0 27 27 27 17 0 31 -4 31 -10z m405 -1 c3 -4 -22 -9 -56 -11 -60 -3 -91 7
-47 15 36 7 98 4 103 -4z m255 -3 c0 -9 -21 -16 -67 -22 -88 -10 -83 -11 -85
1 -2 6 24 15 57 21 83 16 95 16 95 0z m1748 -9 c2 -12 -3 -17 -17 -17 -15 0
-21 6 -21 21 0 25 33 22 38 -4z m202 2 c0 -5 -9 -9 -20 -9 -19 0 -26 11 -14
23 8 8 34 -3 34 -14z m130 11 c0 -5 -7 -10 -15 -10 -8 0 -15 5 -15 10 0 6 7
10 15 10 8 0 15 -4 15 -10z m198 -2 c-6 -18 -28 -21 -28 -4 0 9 7 16 16 16 9
0 14 -5 12 -12z m-3288 -44 c0 -40 -2 -45 -15 -34 -18 15 -17 80 2 80 9 0 13
-14 13 -46z m2628 29 c-5 -26 -38 -29 -38 -4 0 15 6 21 21 21 14 0 19 -5 17
-17z m-2078 -3 c0 -5 -7 -10 -15 -10 -8 0 -15 5 -15 10 0 6 7 10 15 10 8 0 15
-4 15 -10z m1340 -10 c0 -21 -16 -25 -129 -35 -35 -3 -67 -7 -71 -10 -4 -2
-26 -7 -49 -10 -30 -3 -41 -1 -41 9 0 17 174 62 253 65 30 1 37 -2 37 -19z
m550 -6 c0 -8 -9 -14 -20 -14 -22 0 -28 26 -7 33 16 6 27 -1 27 -19z m58 9
c-5 -26 -38 -29 -38 -4 0 15 6 21 21 21 14 0 19 -5 17 -17z m-1733 -12 c-8
-13 -65 -15 -65 -2 0 6 15 11 33 13 38 4 41 3 32 -11z m1553 -4 c2 -12 -3 -17
-17 -17 -12 0 -21 6 -21 13 0 31 32 34 38 4z m52 3 c0 -11 -7 -20 -15 -20 -8
0 -15 9 -15 20 0 11 7 20 15 20 8 0 15 -9 15 -20z m-1680 1 c0 -10 -48 -21
-91 -21 -32 0 -39 16 -11 23 31 8 102 7 102 -2z m520 0 c0 -6 -10 -11 -22 -11
-13 -1 -56 -3 -95 -6 -59 -5 -73 -3 -73 8 0 11 21 15 95 17 62 1 95 -2 95 -8z
m143 -9 c-3 -8 0 -18 7 -22 10 -6 8 -13 -6 -34 -20 -26 -57 -34 -84 -16 -13 8
-12 10 5 11 11 1 5 4 -14 8 -51 9 -52 31 -2 31 22 0 43 5 46 10 4 6 -10 10
-34 10 -23 0 -41 5 -41 11 0 6 25 9 64 8 51 -2 63 -5 59 -17z m903 7 c7 -12
-15 -31 -28 -23 -4 3 -8 12 -8 20 0 17 26 19 36 3z m-1258 -11 c-5 -15 -46
-18 -98 -10 l-35 6 35 7 c62 11 102 10 98 -3z m1202 -3 c0 -8 -7 -15 -15 -15
-8 0 -15 7 -15 15 0 8 7 15 15 15 8 0 15 -7 15 -15z m-1644 -4 c-3 -5 -17 -8
-31 -8 -14 0 -25 3 -25 8 0 5 14 9 31 9 16 0 28 -4 25 -9z m1584 -1 c0 -5 -7
-10 -15 -10 -8 0 -15 5 -15 10 0 6 7 10 15 10 8 0 15 -4 15 -10z m-1910 -21
c0 -6 -4 -7 -10 -4 -5 3 -10 11 -10 16 0 6 5 7 10 4 6 -3 10 -11 10 -16z
m1670 -9 c0 -16 -22 -23 -79 -27 -31 -1 -71 -5 -88 -7 -24 -4 -33 -1 -33 9 0
18 158 56 183 43 9 -5 17 -13 17 -18z m-1572 8 c-6 -18 -28 -21 -28 -4 0 9 7
16 16 16 9 0 14 -5 12 -12z m882 -3 c0 -11 -13 -15 -54 -15 -29 0 -68 3 -85 6
-58 12 -31 24 54 24 69 0 85 -3 85 -15z m346 -12 c-10 -10 -19 5 -10 18 6 11
8 11 12 0 2 -7 1 -15 -2 -18z m34 12 c0 -8 -4 -15 -10 -15 -5 0 -10 7 -10 15
0 8 5 15 10 15 6 0 10 -7 10 -15z m-83 -27 c-3 -8 -6 -5 -6 6 -1 11 2 17 5 13
3 -3 4 -12 1 -19z m1115 10 c-9 -9 -15 -9 -24 0 -9 9 -7 12 12 12 19 0 21 -3
12 -12z m-2532 -8 c0 -5 -2 -10 -4 -10 -3 0 -8 5 -11 10 -3 6 -1 10 4 10 6 0
11 -4 11 -10z m1400 1 c0 -4 -20 -13 -45 -20 -45 -13 -101 -8 -90 8 3 5 14 7
24 4 11 -3 26 -1 35 4 18 10 76 13 76 4z m198 -8 c-3 -16 -9 -18 -82 -28 -21
-3 -41 -7 -45 -10 -7 -4 -36 -11 -93 -21 -14 -3 -29 -1 -32 5 -7 11 96 46 137
45 15 0 27 3 27 7 0 9 26 16 63 18 21 1 28 -3 25 -16z m-1460 -11 c4 -14 0
-15 -22 -6 -9 3 -16 10 -16 14 0 12 33 5 38 -8z m2726 -11 c3 -5 -1 -12 -10
-15 -22 -9 -24 -8 -24 9 0 16 25 21 34 6z m196 -1 c0 -5 -7 -10 -15 -10 -8 0
-15 5 -15 10 0 6 7 10 15 10 8 0 15 -4 15 -10z m-1390 -30 c0 -5 -5 -10 -11
-10 -5 0 -7 5 -4 10 3 6 8 10 11 10 2 0 4 -4 4 -10z m-105 -10 c3 -5 1 -10 -4
-10 -6 0 -11 5 -11 10 0 6 2 10 4 10 3 0 8 -4 11 -10z m65 0 c0 -5 -4 -10 -10
-10 -5 0 -10 5 -10 10 0 6 5 10 10 10 6 0 10 -4 10 -10z m174 -19 c14 -22 -18
-33 -103 -38 -87 -4 -112 3 -78 24 37 23 169 33 181 14z m-1614 -15 c0 -3 -4
-8 -10 -11 -5 -3 -10 -1 -10 4 0 6 5 11 10 11 6 0 10 -2 10 -4z m-150 -42 c0
-19 -4 -33 -8 -30 -8 5 -4 66 4 66 2 0 4 -16 4 -36z m66 -6 c-1 -23 -8 -44
-14 -46 -17 -5 -16 75 1 81 6 3 13 6 14 6 0 1 0 -18 -1 -41z m34 -20 c0 -51
-5 -47 -13 10 -3 24 -1 40 4 36 5 -3 9 -24 9 -46z m1660 27 c14 -16 6 -35 -16
-35 -8 0 -14 10 -14 25 0 28 12 32 30 10z m1404 -11 c8 -21 0 -33 -22 -30 -25
4 -29 46 -4 46 11 0 23 -7 26 -16z m66 -4 c0 -24 -26 -38 -42 -22 -16 16 -2
42 22 42 13 0 20 -7 20 -20z m-1510 -5 c0 -8 -4 -15 -9 -15 -5 0 -23 -3 -41
-7 -25 -5 -32 -3 -28 8 4 12 35 26 66 28 6 1 12 -6 12 -14z m718 -7 c-4 -30
-48 -39 -48 -10 0 24 8 32 32 32 14 0 19 -6 16 -22z m-2298 -13 c0 -17 -5 -25
-17 -24 -11 0 -13 3 -5 6 6 2 12 13 12 24 0 10 2 19 5 19 3 0 5 -11 5 -25z
m2234 16 c10 -15 -19 -42 -37 -35 -17 6 -23 25 -10 37 9 10 41 9 47 -2z m126
-11 c0 -15 -7 -20 -25 -20 -24 0 -34 18 -18 33 15 15 43 7 43 -13z m190 10 c0
-5 -2 -10 -4 -10 -3 0 -8 5 -11 10 -3 6 -1 10 4 10 6 0 11 -4 11 -10z m138 -2
c-7 -19 -38 -22 -38 -4 0 10 9 16 21 16 12 0 19 -5 17 -12z m-2649 -69 c1 -34
-3 -49 -11 -49 -19 0 -34 13 -32 28 3 25 5 27 14 12 7 -11 10 -1 10 35 0 64
16 42 19 -26z m1451 61 c0 -5 -5 -10 -11 -10 -5 0 -7 5 -4 10 3 6 8 10 11 10
2 0 4 -4 4 -10z m610 -15 c0 -8 -7 -15 -15 -15 -8 0 -15 7 -15 15 0 8 7 15 15
15 8 0 15 -7 15 -15z m60 5 c0 -5 -4 -10 -10 -10 -5 0 -10 5 -10 10 0 6 5 10
10 10 6 0 10 -4 10 -10z m-1162 -6 l52 -7 0 -46 0 -47 -42 1 c-24 1 -71 2
-105 3 l-63 2 0 50 0 50 53 0 c28 0 76 -3 105 -6z m-708 -14 c0 -5 -5 -10 -11
-10 -5 0 -7 5 -4 10 3 6 8 10 11 10 2 0 4 -4 4 -10z m37 4 c-3 -3 -12 -4 -19
-1 -8 3 -5 6 6 6 11 1 17 -2 13 -5z m1253 -25 c0 -5 -7 -9 -15 -9 -15 0 -20
12 -9 23 8 8 24 -1 24 -14z m40 11 c0 -5 -7 -10 -16 -10 -8 0 -12 5 -9 10 3 6
10 10 16 10 5 0 9 -4 9 -10z m-80 -10 c0 -5 -9 -10 -21 -10 -11 0 -17 5 -14
10 3 6 13 10 21 10 8 0 14 -4 14 -10z m1150 -10 c0 -13 -7 -20 -20 -20 -13 0
-20 7 -20 20 0 13 7 20 20 20 13 0 20 -7 20 -20z m-1200 0 c0 -5 -4 -10 -10
-10 -5 0 -10 5 -10 10 0 6 5 10 10 10 6 0 10 -4 10 -10z m860 -5 c0 -8 -7 -15
-15 -15 -8 0 -15 7 -15 15 0 8 7 15 15 15 8 0 15 -7 15 -15z m70 0 c0 -8 -9
-15 -20 -15 -20 0 -26 11 -13 23 12 13 33 7 33 -8z m70 0 c0 -8 -9 -15 -20
-15 -11 0 -20 7 -20 15 0 8 9 15 20 15 11 0 20 -7 20 -15z m60 0 c0 -8 -9 -15
-20 -15 -11 0 -20 7 -20 15 0 8 9 15 20 15 11 0 20 -7 20 -15z m-2256 -10 c3
-9 0 -15 -9 -15 -8 0 -15 7 -15 15 0 8 4 15 9 15 5 0 11 -7 15 -15z m1996 0
c0 -8 -7 -15 -15 -15 -8 0 -15 7 -15 15 0 8 7 15 15 15 8 0 15 -7 15 -15z
m-65 -5 c-3 -5 -13 -10 -21 -10 -8 0 -14 5 -14 10 0 6 9 10 21 10 11 0 17 -4
14 -10z m1085 -20 c-19 -13 -30 -13 -30 0 0 6 10 10 23 10 18 0 19 -2 7 -10z
m-820 -31 c0 -12 -7 -19 -20 -19 -24 0 -38 29 -20 40 19 12 40 1 40 -21z m200
0 c0 -12 -7 -19 -19 -19 -22 0 -37 30 -20 41 18 11 39 -1 39 -22z m70 0 c0
-12 -7 -19 -19 -19 -23 0 -35 15 -27 35 7 20 46 7 46 -16z m330 12 c0 -11 -5
-23 -11 -27 -15 -9 -33 12 -26 30 9 23 37 20 37 -3z m-3133 -13 c-3 -8 -6 -5
-6 6 -1 11 2 17 5 13 3 -3 4 -12 1 -19z m2471 5 c-4 -22 -38 -30 -49 -12 -11
19 -2 29 27 29 19 0 25 -5 22 -17z m112 -13 c-20 -12 -33 -1 -19 16 9 11 15
12 23 4 8 -8 7 -13 -4 -20z m280 9 c0 -25 -33 -22 -38 4 -2 12 3 17 17 17 15
0 21 -6 21 -21z m68 4 c-5 -26 -38 -29 -38 -4 0 15 6 21 21 21 14 0 19 -5 17
-17z m122 -4 c0 -5 -7 -9 -15 -9 -15 0 -20 12 -9 23 8 8 24 -1 24 -14z m318 4
c-4 -22 -22 -20 -26 1 -2 10 3 16 13 16 10 0 15 -7 13 -17z m-1158 -19 c0 -8
-8 -14 -18 -14 -25 0 -34 11 -21 26 13 15 39 7 39 -12z m120 11 c0 -16 -27
-32 -37 -22 -3 4 -3 13 0 22 8 20 37 20 37 0z m330 5 c0 -5 -7 -10 -15 -10 -8
0 -15 5 -15 10 0 6 7 10 15 10 8 0 15 -4 15 -10z m-2570 -56 c0 -47 -3 -55
-17 -52 -10 2 -19 13 -21 26 -2 12 -10 22 -18 22 -16 0 -19 16 -4 25 6 3 10 0
11 -7 0 -7 5 -1 11 15 18 49 38 34 38 -29z m271 44 c0 -10 2 -10 6 0 9 22 23
13 24 -15 l1 -28 10 28 c8 22 16 27 44 27 l34 0 0 -50 0 -50 -35 0 c-26 0 -35
4 -35 16 0 12 -3 14 -12 6 -7 -5 -26 -11 -43 -12 -62 -4 -65 -3 -65 39 0 22 5
42 13 44 24 10 57 7 58 -5z m1659 -3 c0 -8 -7 -15 -15 -15 -16 0 -20 12 -8 23
11 12 23 8 23 -8z m128 -2 c2 -8 -6 -13 -22 -13 -25 0 -33 10 -19 24 10 10 36
3 41 -11z m115 2 c1 -5 -6 -11 -15 -13 -11 -2 -18 3 -18 13 0 17 30 18 33 0z
m132 5 c3 -5 -3 -10 -15 -10 -12 0 -18 5 -15 10 3 6 10 10 15 10 5 0 12 -4 15
-10z m-1818 -22 c-3 -8 -6 -5 -6 6 -1 11 2 17 5 13 3 -3 4 -12 1 -19z m1503
12 c0 -5 -7 -10 -15 -10 -8 0 -15 5 -15 10 0 6 7 10 15 10 8 0 15 -4 15 -10z
m-170 -10 c0 -5 -5 -10 -11 -10 -5 0 -7 5 -4 10 3 6 8 10 11 10 2 0 4 -4 4
-10z m1090 -35 c0 -18 -5 -25 -19 -25 -11 0 -23 5 -26 10 -11 18 3 40 25 40
15 0 20 -7 20 -25z m130 6 c0 -11 -4 -22 -9 -25 -12 -8 -34 21 -26 34 11 17
35 11 35 -9z m-923 -25 c-9 -23 -37 -20 -37 3 0 21 20 33 34 20 5 -4 6 -15 3
-23z m133 19 c0 -16 -34 -38 -44 -28 -3 3 -6 15 -6 25 0 13 7 18 25 18 15 0
25 -6 25 -15z m60 -17 c0 -5 -11 -8 -25 -8 -29 0 -33 15 -8 29 17 9 32 -1 33
-21z m128 9 c2 -12 -3 -17 -17 -17 -15 0 -21 6 -21 21 0 25 33 22 38 -4z m65
17 c11 -11 -5 -34 -24 -34 -12 0 -19 7 -19 20 0 19 28 28 43 14z m132 -14 c0
-8 -8 -16 -17 -18 -13 -2 -18 3 -18 18 0 15 5 20 18 18 9 -2 17 -10 17 -18z
m75 5 c0 -20 -28 -31 -42 -17 -10 10 8 23 40 31 1 1 2 -6 2 -14z m60 -6 c0
-25 -33 -22 -38 4 -2 12 3 17 17 17 15 0 21 -6 21 -21z m63 -10 c-17 -17 -37
-1 -22 17 8 10 15 12 23 4 7 -7 7 -13 -1 -21z m137 10 c0 -25 -33 -22 -38 4
-2 12 3 17 17 17 15 0 21 -6 21 -21z m-1150 -9 c0 -11 -7 -20 -15 -20 -8 0
-15 9 -15 20 0 11 7 20 15 20 8 0 15 -9 15 -20z m70 11 c0 -5 -7 -14 -15 -21
-18 -15 -42 1 -31 19 8 13 46 15 46 2z m48 -14 c2 -11 -3 -17 -16 -17 -24 0
-32 8 -25 26 7 20 37 13 41 -9z m122 2 c0 -15 -5 -20 -22 -17 -34 5 -37 38 -4
38 20 0 26 -5 26 -21z m310 6 c0 -8 -6 -15 -14 -15 -17 0 -28 14 -19 24 12 12
33 6 33 -9z m200 0 c0 -8 -9 -15 -20 -15 -20 0 -26 11 -13 23 12 13 33 7 33
-8z m-580 -10 c0 -8 -6 -15 -14 -15 -17 0 -28 14 -19 24 12 12 33 6 33 -9z
m188 3 c-3 -7 -11 -13 -18 -13 -7 0 -15 6 -17 13 -3 7 4 12 17 12 13 0 20 -5
18 -12z m-408 -33 c0 -10 -10 -15 -30 -15 -22 0 -28 -4 -24 -15 4 -8 1 -15 -5
-15 -6 0 -11 7 -11 15 0 8 -7 15 -15 15 -23 0 -18 18 8 23 50 10 77 7 77 -8z
m410 -20 c0 -18 -5 -25 -20 -25 -25 0 -38 29 -19 41 25 15 39 10 39 -16z m68
3 c-2 -15 -11 -24 -25 -26 -19 -3 -23 1 -23 22 0 21 5 26 26 26 21 0 25 -4 22
-22z m196 5 c4 -9 2 -21 -3 -26 -15 -15 -46 -3 -49 21 -3 18 1 22 21 22 14 0
28 -7 31 -17z m124 -11 c3 -16 -2 -22 -17 -22 -24 0 -35 15 -27 36 9 23 40 13
44 -14z m-738 1 c0 -10 -4 -14 -8 -8 -4 6 -11 13 -16 18 -5 4 -2 7 7 7 10 0
17 -8 17 -17z m168 -6 c3 -12 -3 -17 -22 -17 -25 0 -35 18 -19 34 12 12 38 2
41 -17z m372 3 c0 -13 -7 -20 -20 -20 -19 0 -27 20 -13 33 13 14 33 6 33 -13z
m400 -1 c0 -25 -33 -22 -38 4 -2 12 3 17 17 17 15 0 21 -6 21 -21z m61 -12
c-12 -12 -31 0 -31 19 0 12 3 12 20 2 11 -7 16 -16 11 -21z m139 11 c0 -11 -7
-18 -20 -18 -18 0 -27 19 -15 32 12 12 35 3 35 -14z m65 2 c0 -22 -29 -18 -33
3 -3 14 1 18 15 15 10 -2 18 -10 18 -18z m-977 -7 c2 -8 -5 -13 -17 -13 -21 0
-35 13 -24 24 10 10 36 3 41 -11z m52 2 c0 -8 -7 -15 -15 -15 -8 0 -15 7 -15
15 0 8 7 15 15 15 8 0 15 -7 15 -15z m188 3 c-6 -18 -28 -21 -28 -4 0 9 7 16
16 16 9 0 14 -5 12 -12z m202 -4 c0 -9 -7 -14 -17 -12 -25 5 -28 28 -4 28 12
0 21 -6 21 -16z m195 6 c3 -6 -3 -10 -14 -10 -12 0 -21 5 -21 10 0 6 6 10 14
10 8 0 18 -4 21 -10z m215 1 c0 -6 -5 -13 -10 -16 -15 -9 -43 3 -35 15 8 13
45 13 45 1z m330 -10 c0 -6 -4 -13 -10 -16 -5 -3 -10 1 -10 9 0 9 5 16 10 16
6 0 10 -4 10 -9z"/>
<path d="M1294 1601 c-52 -31 -74 -68 -74 -121 0 -148 182 -202 261 -77 28 45
22 127 -12 163 -52 56 -119 69 -175 35z"/>
<path d="M1855 1605 c-35 -18 -65 -51 -65 -71 0 -11 25 -14 123 -14 68 0 127
3 130 6 12 12 -35 66 -69 80 -43 18 -82 18 -119 -1z"/>
<path d="M4295 1410 c-3 -5 -2 -10 4 -10 5 0 13 5 16 10 3 6 2 10 -4 10 -5 0
-13 -4 -16 -10z"/>
<path d="M4755 500 c3 -5 10 -10 16 -10 5 0 9 5 9 10 0 6 -7 10 -16 10 -8 0
-12 -4 -9 -10z"/>
<path d="M4743 274 c-3 -8 -1 -25 5 -37 10 -20 11 -18 11 16 1 39 -5 48 -16
21z"/>
<path d="M5050 260 c0 -5 5 -10 11 -10 5 0 7 5 4 10 -3 6 -8 10 -11 10 -2 0
-4 -4 -4 -10z"/>
<path d="M5080 260 c0 -5 5 -10 10 -10 6 0 10 5 10 10 0 6 -4 10 -10 10 -5 0
-10 -4 -10 -10z"/>
<path d="M5347 216 c-4 -9 -23 -16 -49 -18 -35 -3 -39 -5 -23 -13 11 -5 24
-13 28 -19 5 -7 6 -3 3 8 -5 14 -2 17 10 12 8 -3 18 -6 20 -6 2 0 4 -9 4 -20
0 -12 -7 -20 -17 -20 -17 -1 -17 -1 0 -11 27 -16 37 -1 36 52 -2 53 -4 57 -12
35z"/>
<path d="M5278 133 c7 -3 16 -2 19 1 4 3 -2 6 -13 5 -11 0 -14 -3 -6 -6z"/>
<path d="M4870 105 c7 -8 17 -12 22 -9 6 4 5 10 -3 15 -22 14 -33 10 -19 -6z"/>
<path d="M5332 85 c-11 -13 -10 -15 7 -15 14 0 19 5 15 15 -7 18 -6 18 -22 0z"/>
<path d="M7117 23 c-12 -11 -8 -23 8 -23 8 0 15 7 15 15 0 16 -12 20 -23 8z"/>
</g>
</svg>
